<?xml version="1.0" encoding="utf-8"?>

<!DOCTYPE svg PUBLIC "-//W3C//DTD SVG 1.1//EN" "http://www.w3.org/Graphics/SVG/1.1/DTD/svg11.dtd">
<svg version="1.1" id="Layer_1" xmlns="http://www.w3.org/2000/svg" xmlns:xlink="http://www.w3.org/1999/xlink" x="0px" y="0px"
	 viewBox="0 0 896 4228" enable-background="new 0 0 896 4228" xml:space="preserve">
<path enable-background="new    " d="M789.01,3235.16c1.25-6.5,0.88-13.19,1.72-19.74c1.01-1.65,2.75-3.31,2.32-5.37
	c-1.78-8.43-4.11-16.74-5.99-25.13c-0.7-3.9-0.37-8.06-2.49-11.56c-7.1-13.94-14.06-27.96-20.96-41.99
	c-11.55-17.75-23.64-35.15-35.24-52.87c-2.32-3.7-5.68-6.9-10-7.96c-0.91,0.43-1.8,0.9-2.69,1.42c-2.43-2.89-5.15-5.75-9.01-6.49
	c-0.44-4.32-0.9-8.61-1.45-12.88c8.56-3.56,17.11-7.13,25.67-10.66c2.26-0.87,4.05-2.54,5.8-4.14c4.55-4.28,9.24-8.41,13.85-12.63
	c-1.04-3.8-4.42-6.06-6.95-8.79c-2.49-2.69-5.85-4.24-8.98-5.99c-5.91-3.32-11.85-6.59-17.7-10.01c2.79-1.02,5.58-2.01,8.38-3
	c0.35-3.38,2.08-6.94,0.63-10.21c-6.69-4.25-14.5-6.59-21.06-10.95c-8.09-10.95-15.69-22.28-23.64-33.33
	c6.86-3.19,13.78-6.23,20.57-9.53c-0.67-4.73-0.94-9.5-1.74-14.19c-6.66-2.41-13.72-4.57-18.39-10.26
	c-0.03-7.64,0.17-15.27-0.3-22.88c-0.06-47.03-0.01-94.05-0.03-141.08c0.16-10.01-0.59-19.99-0.33-29.99c0-43.37,0-86.74,0-130.11
	c5.83-2.68,11.64-5.4,17.42-8.18c-1.64-5.32-3.47-10.6-4.73-16.01c5.58-2.21,11.56-3.17,17.23-5.17
	c-17.44-29.25-33.7-59.19-50.72-88.68c-2.55-3.78-2.34-8.48-2.52-12.82c-0.86-22.67,0.15-45.37-0.69-68.03
	c-0.07-18,0.27-36-0.34-53.98c0.28-30.01-0.54-60-0.32-90.01c-0.45-19.98-0.34-39.97-0.32-59.95c-0.9-21.64,0.21-43.31-0.69-64.95
	c0.02-14.7,0-29.39,0.02-44.09c-0.89-21.63,0.2-43.3-0.69-64.93c0.27-32.34-0.57-64.65-0.31-96.99
	c-0.89-21.65,0.21-43.34-0.68-64.99c-0.12-18.37,0.34-36.74-0.34-55.09c0.03-14.34,0-28.67,0.02-43c-0.67-15.64-0.2-31.3-0.34-46.94
	c0.21-8.37-0.56-16.71-0.33-25.07c-0.15-15.31,0.33-30.63-0.34-45.93c0-15,0-30,0.01-45c-0.67-15.68-0.2-31.38-0.34-47.07
	c0.22-7.98-0.56-15.94-0.33-23.92c-0.14-15.69,0.33-31.4-0.34-47.07c0-14.99,0.01-29.98,0-44.97c-0.66-14.65-0.19-29.32-0.33-43.97
	c0.21-10.02-0.58-20.02-0.33-30.04c0.17-28.98-0.61-57.95-0.32-86.94c-0.63-15.34-0.25-30.69-0.35-46.04
	c0.19-10.02-0.59-20.01-0.33-30.02c0.17-28.67-0.61-57.3-0.32-85.97c-0.58-13.65-0.29-27.32-0.35-40.98
	c0.15-15.02-0.59-30.01-0.33-45.03c0.25-17.35-0.5-34.67-0.34-52.02c-0.05-12.34,0.21-24.7-0.34-37.03
	c0.32-29.58-0.59-59.14-0.27-88.71c9.01-0.15,15.81-9.43,14.17-18.06c-0.86-5.62-5.35-9.96-10.55-11.85
	c-0.16-13.11,0.32-26.24-0.32-39.35c-0.18-19,0.32-38.01-0.37-56.99c0.02-14.69,0.04-29.38,0-44.07
	c-0.58-10.32-0.22-20.65-0.32-30.98c0.28-16.64-0.56-33.26-0.3-49.89c7.13-2.64,11.75-10.44,10.28-17.95
	c-0.74-5.21-4.77-9.07-9.25-11.35c-0.8-17.59-0.22-35.21-0.38-52.82c-0.66-18.31-0.23-36.64-0.34-54.96
	c-0.66-17.64-0.22-35.3-0.32-52.96c-0.59-18.41-0.36-36.86-0.27-55.28c2.21-1.84,5.16-2.84,6.81-5.3
	c4.24-5.47,4.84-13.99,0.34-19.49c-2.99-3.9-7.89-5.5-12.58-6.09c0.17-13.26-0.13-26.52-0.33-39.77c-1.71-2.26-3.38-4.53-5.02-6.83
	c4.1-1.93,8.28-3.7,12.33-5.72c0.68-2.57,1.38-5.13,2.12-7.67c-1.31-2.68-2.43-5.55-4.65-7.62c-5.39-5.3-10.45-10.91-15.69-16.35
	c-1.2-1.19-2.02-2.68-2.58-4.26c-2.25-5.94-4.56-11.86-6.84-17.79c3.88-3.89,7.74-7.79,11.67-11.63c4.13-3.64,5.37-9.23,7.89-13.92
	c4.14-7.32,1.09-15.93,1.76-23.84c-6.78-5.41-13.78-10.56-20.4-16.16c-2.6-12.75-4.05-25.75-6.38-38.57
	c-4.33-0.54-8.69-0.45-13.02-0.01c-2.22,12.84-3.96,25.76-5.99,38.63c-6.12,4.8-12.12,9.76-18.27,14.52
	c-0.97,0.92-2.55,1.68-2.52,3.22c-0.23,3.62,0,7.26-0.08,10.89c0.04,3.46-0.5,7.18,1.39,10.31c2.73,4.92,4.03,10.84,8.39,14.68
	c4.04,3.95,8.01,7.97,12.01,11.97c-2.16,5.86-4.45,11.66-6.59,17.53c-0.57,1.62-1.35,3.18-2.57,4.41
	c-4.82,5.19-9.57,10.44-14.7,15.32c-2.56,2.38-4.28,5.52-5.41,8.79c-0.21,2.66,1.11,5.21,1.67,7.79c4.18,1.94,8.39,3.82,12.61,5.68
	c-1.81,3.09-5.39,5.63-5.14,9.54c0.02,12.36,0.03,24.71,0.01,37.07c-3.53,0.6-7.11,1.41-10.02,3.61c-2.61-0.41-5.21-0.82-7.81-1.13
	c-2.7-9.28-5.23-18.62-8.03-27.88c-3.72-9.48-7.77-18.82-11.64-28.24c-2.51-5.74-4.51-11.73-7.76-17.11
	c-6.98-11.73-13.18-23.95-20.72-35.32c-6.85-8.83-13.64-17.7-20.45-26.55c-4.5-5.52-10.08-10-15.05-15.06
	c-5.27-4.69-9.99-10-15.51-14.39c-9.41-6.23-18.67-12.71-28.14-18.84c-9.22-4.27-18.71-7.93-27.99-12.05
	c-9.85-4.69-20.91-5.37-31.41-7.79c-11.6-3.11-23.66-1-35.47-1.08c-7.14-0.42-13.86,2.25-20.71,3.77
	c-4.07-4.86-10.4-6.46-16.28-7.97c-4.13,0.55-8.22,1.6-12.17,2.91c-2.54,2.05-4.54,4.7-6.8,7.06c-3.41,3.39-2.93,8.69-5.12,12.71
	c-4.43,2.84-9.64,4.32-13.84,7.54c-7.7,6.03-15.38,12.06-23.11,18.04c-1.8,1.4-3.49,2.93-5.01,4.62
	c-7.53,8.49-15.07,16.97-22.62,25.45c-3.74,4.1-6.34,9.04-9.39,13.64c-4.85,7.75-9.92,15.38-14.67,23.19
	c-5.66,12.36-11.23,24.77-16.71,37.22c-4.32,13.53-8.24,27.2-12.33,40.81c-2.57,12.55-4.33,25.26-6.64,37.87
	c-1.75,8.51-1.66,17.22-2.23,25.86c-0.35,12.03-2.06,24.07-0.92,36.1c0.88,13.03,1.33,26.09,2.49,39.09
	c2.24,13.13,4.18,26.32,6.7,39.4c3.15,9.38,6.22,18.83,9.83,28.05c9.14,16.66,18.57,33.35,30.87,47.91
	c5.3,7.35,12.62,12.81,19.09,19.05c4.65,4.55,10.49,7.54,15.83,11.17c6.68,4.78,14.8,6.7,22.24,9.96c1.51,2.74,2.55,5.8,4.55,8.25
	c2.99,2.78,6.32,5.22,9.98,7.05c-2.52,6.4-7.74,11.31-10.15,17.77c-1.32,3.44-2.6,6.91-3.96,10.34c2.35,4.03,4.75,8.04,7.06,12.1
	c-3.1,2.52-6.43,4.77-9.35,7.5c-1.57,1.93-2.27,4.39-3.33,6.62c-8.73,19.54-17.52,39.05-26.26,58.58c-4.33,0.76-8.75,1.17-12.96,2.5
	c-2.37,0.82-2.34,3.65-2.6,5.72c2.92,1.37,5.85,2.75,8.78,4.11c0.04,1.23,0.08,2.46,0.12,3.71c-12.74,7.41-25.68,14.46-38.38,21.93
	c0.11,2.49-1.25,6.02,1.41,7.64c2.8,1.58,6.14,1.62,9.24,2.19c0.2,1.77-0.09,3.92,1.49,5.19c1.52,1.62,3.84,1.81,5.87,2.36
	c-0.01,35.22,0.02,70.45-0.02,105.68c-3.05,0.72-7.44,2.09-7.01,6.07c0.27,3.54,4.15,4.61,7.03,5.24
	c0.67,38.6,0.19,77.23,0.33,115.84c-3.04,0.55-7.28,1.88-7.04,5.74c0.08,3.59,3.98,4.65,6.82,5.37c0.46,2.62,1.31,5.67,4.27,6.42
	c7.59,1.91,15.55,1.34,23.3,2.1c-0.01,0.8-0.03,1.62-0.04,2.45c-4.2,1.68-7.66,4.65-11.41,7.12
	c-44.04,30.31-88.15,60.53-132.15,90.9c0.79,1.15,1.58,2.34,2.37,3.53c7.73,1.81,15.72,1.88,23.6,2.5
	c26.95,1.2,53.92,2.05,80.9,2.07c-0.68,4.56-2.23,9.02-2.34,13.65c1.94,10.76,4.39,21.43,6.42,32.17c0.46,3.53,2.95,6.24,4.79,9.13
	c4.9,7.43,9.93,14.77,14.87,22.18c1.66,2.68,4.61,4.06,7.12,5.81c8.27,5.33,16.24,11.16,24.71,16.18c4.4,1.02,8.99,0.47,13.48,0.6
	c0,14.7,0.01,29.4-0.01,44.1c-4.2,0.61-7.96,2.94-10.76,6.08c-10.57,12.33-10.34,32.4-0.01,44.81c4.02,4.74,10.52,7.8,16.77,6.47
	c6.54-1.03,11.39-6.34,14.39-11.91c4.78-9.99,4.88-22.15,0.2-32.19c-2.99-6.19-8.16-11.93-15.22-13.18
	c0.12-14.63-0.62-29.23-0.35-43.85c17.48-0.1,35.03,0.38,52.45-1.06c7.1-3.94,13.49-9.11,20.4-13.4c4.15-3.15,9.47-5.16,12.25-9.8
	c5.32-8,10.47-16.12,15.91-24.03c1.25-1.83,2.43-3.76,2.76-5.98c2.11-10.69,4.22-21.39,6.29-32.09c0.15-4.73-1.64-9.3-2.29-13.95
	c26.43-0.54,52.88-1.11,79.29-2.56c8.46-0.68,17.1-0.57,25.34-2.86c0.69-1.18,1.4-2.34,2.12-3.47
	c-44.02-29.88-87.97-59.85-131.97-89.75c-3.94-2.52-7.54-5.6-11.85-7.49c-0.03-0.85-0.06-1.67-0.07-2.48
	c7.59-0.65,15.34-0.31,22.8-2.06c3.12-0.65,4.13-3.87,4.52-6.61c2.97-0.6,7.2-1.92,6.76-5.76c0.04-3.72-4.2-4.65-7.06-5.27
	c-0.11-14.22,0.31-28.45-0.33-42.66c0.02-24.38-0.02-48.75,0.02-73.13c2.03-0.69,4.37-1,5.96-2.57c1.47-1.39,0.89-3.57,1.11-5.33
	c-1.99-1.81-4.41-2.98-7.05-3.45c-0.23-17.84,0.33-35.7-0.38-53.53c0.03-17.39-0.01-34.77,0.02-52.15c2.11-0.64,4.54-1,6.04-2.78
	c1.23-1.31,1-3.23,1.3-4.86c3.15-0.63,6.74-0.5,9.42-2.52c2.26-1.8,0.87-5.04,0.87-7.46c-12.77-7.19-25.55-14.36-38.33-21.51
	c0-1.26,0.01-2.51,0.02-3.75c2.94-1.43,5.91-2.83,8.87-4.22c-0.47-1.88-0.05-4.65-2.27-5.49c-4.29-1.59-8.94-1.72-13.37-2.7
	c-9.71-21.33-19.35-42.69-29.15-63.97c-2.76-3.49-6.85-5.65-10.2-8.54c2.37-4.01,4.69-8.06,7.07-12.06
	c-1.21-2.94-2.33-5.91-3.45-8.88c-1.95-5.84-6.07-10.55-9.23-15.74c-1.03-1.35-1.23-3.04-1.51-4.64c1.94-0.96,3.95-1.8,5.75-3.01
	c3.02-2.33,4.51-6.09,7.37-8.57c6.6-2.54,13.91-3.14,20.13-6.68c5.99-3.46,12.45-6.11,18.13-10.1c5.27-4.39,10.97-8.32,15.77-13.24
	c5.25-6.41,11.38-12.19,15.46-19.48c3.46-5.9,7.65-11.42,10.16-17.84c2.79-6.87,6.47-13.39,8.34-20.6
	c2.7-9.65,6.23-19.12,7.33-29.14c1.91-9.85,2.99-19.83,2.45-29.87c8.39,12.87,19.29,24.29,32.42,32.38
	c4.49,3.29,9.9,4.91,14.98,7.05c16.38,4.68,34.96,4.58,50-4.16c23.94-11.37,39.02-35.57,46.18-60.32
	c0.66,18.26,1.38,36.52,1.11,54.8c-0.26,14,0.45,27.98,0.33,41.98c0,11.95,0,23.89,0,35.84c-3.66,0.83-7.53,2.29-9.73,5.51
	c-2.99,3.98-3.19,9.75-0.46,13.92c2.19,3.55,6.23,5.4,10.16,6.32c0.21,14.13-0.31,28.27,0.36,42.4c0,43.33,0.02,86.66-0.01,129.99
	c0.69,18.37,0.19,36.76,0.35,55.14c-3.38,0.48-6.89,1.66-9.1,4.4c-3.69,4.01-4.15,10.59-0.95,15.03c2.17,3.47,6.2,5.18,10.1,5.83
	c-0.9,10.51-0.11,21.1-0.42,31.65c-0.63,11-0.11,22.02-0.34,33.03c-0.61,10.64-0.13,21.31-0.32,31.97
	c-0.75,13.66,0.13,27.35-0.65,41.01c0.25,18.35-0.57,36.68-0.31,55.04c-0.57,12.5-0.29,25.01-0.33,37.53
	c1.14,1.35,2.28,2.68,3.44,4.05c-2.06,0.59-4.12,1.19-6.17,1.82c-0.26,1.4-0.52,2.82-0.76,4.25c3.3,1.66,5.55,4.63,7.75,7.5
	c-4.82,5.05-8.23,11.08-10.84,17.51c4.23,6.61,6.7,14.52,12.64,19.88c2.85,2.59,3.34,6.63,4.76,10.04c3.8,0.18,7.61,0.46,11.42,0.25
	c0.99-2.74,1.74-5.6,3.15-8.16c1.78-2.49,4.38-4.25,6.13-6.77c1.62-2.38,2.94-4.95,4.44-7.4c0.05,50.16,0.01,100.32,0.02,150.49
	c-0.68,41.31-0.18,82.66-0.33,123.99c-0.15,26.98,0.35,53.99-0.35,80.97c0.03,55,0.01,110.01,0.02,165.02
	c-0.68,40.66-0.19,81.34-0.34,122.01c-0.15,27.65,0.35,55.32-0.34,82.97c0.04,56.67-0.02,113.33,0.03,170
	c-0.71,23.98-0.2,47.99-0.35,71.99c0,29.66,0,59.32,0,88.98c0.23,20.32-0.56,40.62-0.34,60.94c-0.15,57.04,0.35,114.11-0.33,171.14
	c0,18.32-0.01,36.64,0.01,54.97c-0.13,5.5,0.32,11.27-1.51,16.54c-6.18,11.12-12.51,22.15-18.72,33.25
	c-10.7,18.67-20.85,37.65-31.98,56.06c-0.76,0.73-0.63,2.18,0.57,2.41c5.26,1.63,10.66,2.8,15.92,4.47
	c-1.47,5.39-3.33,10.67-4.72,16.09c5.91,2.82,11.85,5.55,17.79,8.32c0.05,26.49-0.23,53,0.14,79.49
	c0.39,26.78,0.06,53.58,0.17,80.37c0.14,25.67-0.34,51.36,0.34,77.02c-0.04,28.94,0.02,57.87-0.03,86.8
	c-2.37,1.98-4.4,4.4-7.05,6.04c-3.76,1.79-7.77,3-11.61,4.62c-0.41,4.51-1.17,9.01-1.27,13.57c0.74,1.27,2.33,1.64,3.57,2.36
	c5.57,2.43,11.06,5.04,16.64,7.48c-7.52,10.86-15.17,21.65-22.7,32.51c-1.34,2.22-3.94,2.99-6.14,4.1
	c-5.4,2.55-10.69,5.35-16.07,7.95c0.53,3.45,1.13,6.92,1.73,10.38c2.59,0.94,5.19,1.83,7.79,2.8c-7.86,4.67-15.96,8.95-23.83,13.61
	c-3.36,2.5-6.26,5.6-9,8.75c-0.67,2.78,2.1,4.49,3.8,6.2c4.63,3.93,8.91,8.3,13.62,12.14c8.96,4.12,18.26,7.49,27.3,11.47
	c-0.72,6.85-1.37,13.71-2.24,20.56c-3.7,1.06-6.27,3.95-8.54,6.89c1.01-3.26,1.68-6.67,0.91-10.02c-0.94-0.62-1.87-1.2-2.8-1.76
	c-5.9,1.18-9.32,6.46-12.22,11.23c-10.86,17.13-21.78,34.23-32.53,51.43c-7.46,15.71-14.35,31.69-21.76,47.42
	c-1.72,3.26-1.8,7.01-2.69,10.55c-1.39,5.46-3.18,10.82-4.5,16.32c-0.84,2.54,1.53,4.49,2.39,6.7c1.31,7.81-0.31,16.28,3.43,23.55
	c2.25,5.17,4.28,10.44,6.55,15.62c0.69,1.83,2.73,2.53,4.25,3.62c15.09,9.1,29.87,18.75,45.1,27.62
	c-9.52,3.87-18.62,8.75-27.93,13.11c0.83,6.77,2.09,13.49,3.21,20.24c9.43,7.28,18.84,14.58,28.23,21.91
	c-7.42,1.51-14.85,3.21-21.93,5.92c-3.48,4.5-5.89,9.81-8.42,14.91c-3.83,1.28-7.97,1.97-11.4,4.22c-4.76,3.83-4.07,10.88-2.36,16.1
	c1.25,3.53,5.06,4.56,8.07,6.12c0.6,46.96,0.4,93.94,0.42,140.92c-0.22,22.67,0.57,45.33,0.33,68.01
	c-0.01,33.67,0.02,67.35-0.01,101.03c0.7,27.3,0.19,54.63,0.35,81.96c0.15,25.99-0.35,52,0.34,77.99
	c-0.03,43.67,0.01,87.33-0.02,131c-0.04,4.91,0.8,9.86,0.15,14.78c-2.05,5.25-5.87,9.75-7.44,15.18c0.09,7.07,1.09,14.11,1.49,21.19
	c-0.1,4.54,3.15,8.06,5.06,11.94c-1.24,3.55-2.08,7.25-3.53,10.76c-1.07,1.03-2.62,1.43-3.95,2.12c-5.1,2.58-11.83,3.45-14.96,8.77
	c-2.27,4.9-1.42,10.59-0.42,15.73c1.18,4.67,5.89,6.71,9.94,8.36c-0.01,8.61-0.11,17.22,0.39,25.84c5.29,2.1,10.46,4.52,15.81,6.48
	c5.5,1.31,11.13,2.08,16.68,3.23c17.73,3.82,35.94,4.42,53.92,6.46c22.63,0.95,45.25,2.49,67.91,2.17
	c13.01-0.15,26.03,0.36,39.03-0.44c14.01-0.73,28.03-1.27,42.04-2.09c12.91-1.34,25.83-2.65,38.72-4.1
	c9.45-1.71,18.85-3.7,28.27-5.58c5.43-1.7,10.4-4.61,15.61-6.87c-0.1-8.56,0.01-17.11-0.07-25.65c2.94-1.53,6.5-2.36,8.57-5.13
	c2.29-2.8,2.82-6.72,1.96-10.13c-0.94-4.3-1.08-9.38-4.87-12.27c-4.81-3-10.47-4.17-15.52-6.62c-2.05-3.03-2.51-6.85-3.74-10.23
	c2.22-4.5,6.04-8.55,5.93-13.83c0.19-6.11,1.58-12.22,0.69-18.29c-0.83-6.21-5.89-10.77-7.28-16.7c-0.1-22.5-0.04-45-0.02-67.49
	c4.27-2.6,11.33-2.66,12.78-8.34c1.61-4.92,1.15-10.15,1.19-15.21c0-39.02,0-78.04,0-117.07c0.16-8.69-0.58-17.36-0.33-26.03
	c0-45.99,0-91.97,0-137.95c0.16-9.99-0.59-19.95-0.33-29.93c-0.01-34.02,0-68.04,0-102.06c-0.15-11.03,0.29-22.08-0.24-33.08
	c-0.47-3.12-0.26-7.45-3.54-9.02c-3.5-0.49-7.04-0.19-10.55-0.22c-0.01-23.42,0-46.84-0.01-70.26c3.15-1.26,6.7-2.57,8.31-5.81
	c2.07-4.26,0.19-9.06-1.18-13.21c-2.5-5.23-8.95-5.64-13.83-7.16c-2.27-5.29-5.37-10.13-8.1-15.15c-7.18-2.03-14.37-4.04-21.72-5.38
	c9.53-7.51,19.02-15.06,28.71-22.36c0.54-6.82,3.69-13.69,1.72-20.48c-7.94-3.74-15.89-7.45-23.75-11.35
	c15.18-9.11,30.59-17.89,45.58-27.28C783.39,3249.37,786.12,3242.21,789.01,3235.16z M223,799.05c3.25-0.06,6.88,0.28,9.46-2.14
	c-1.57,3.17-3.81,5.97-5.3,9.19c-0.42,5.96-0.03,11.96-0.19,17.95c-0.45,4.89,3.97,8.23,5.11,12.69c-1.39,3.01-3.58,5.58-4.9,8.64
	c-0.52,7.01-0.04,14.08,0.32,21.1c1.38,3.4,3.6,6.37,5.26,9.63c-2.95,1.32-6.25,0.83-9.38,1.07
	C222.55,851.15,223.22,825.09,223,799.05z M223.32,989.07c0.03-32.35,0.01-64.71,0.01-97.06c1.33-0.01,2.66-0.02,4-0.01
	c0.13,4.55-0.28,9.13,0.17,13.67c1.36,3.02,3.37,5.68,5.03,8.54c-1.61,3.33-3.98,6.35-5.09,9.9c-0.17,6.83-0.26,13.71,0.05,20.54
	c1.37,3.02,3.43,5.68,5.15,8.52c-1.67,3.34-3.8,6.48-5.12,9.99c-0.47,5.95-0.04,11.94-0.22,17.92c-0.44,2.98,1.72,5.24,3.24,7.54
	C228.13,988.79,225.73,988.96,223.32,989.07z M194.81,1134.67c0.41,0,1.24-0.01,1.66-0.01c-0.45,2.51-0.91,5.02-1.38,7.54
	c-0.43,0.09-1.3,0.25-1.74,0.33C193.79,1139.9,194.3,1137.28,194.81,1134.67z M198.55,1177.71c-1.97-8.66-3.56-17.41-5.31-26.12
	c0.53,0.26,1.57,0.79,2.1,1.06c2,8.48,3.48,17.1,5.03,25.68C199.91,1178.18,199,1177.87,198.55,1177.71z M273.98,1290.01
	c6.33,9.63,6.67,22.95,0.93,32.94c-2.64,4.48-7.43,8.16-12.86,7.74c-5.51-0.54-9.73-4.99-12.17-9.67c-4.43-9-4.59-20.12,0.01-29.08
	c1.99-3.82,5.23-7.17,9.4-8.5C265.03,1281.5,270.88,1285.35,273.98,1290.01z M368.77,1134.29c0.87,2.65,1.19,5.43,1.6,8.2
	c-3.26-1.57-2.39-5.87-3.31-8.78C367.49,1133.85,368.34,1134.14,368.77,1134.29z M368.63,1151.79l1.84-0.3
	c-1.46,7.86-3.12,15.68-4.55,23.55c-0.09,1.44-0.91,2.57-2.18,3.27C364.81,1169.39,366.53,1160.51,368.63,1151.79z M339.67,988.58
	c-2.45,0.13-4.9,0.32-7.35,0.52c-0.37,0.5-1.11,1.5-1.48,2c1.61-3.31,4.96-6.12,4.52-10.1c-0.14-6.02,0.18-12.05-0.15-18.05
	c-1.19-3.55-3.4-6.65-5.06-9.98c1.68-2.8,3.4-5.56,5.18-8.29c-0.1-6.89,0.21-13.79-0.11-20.67c-1.17-3.57-3.47-6.65-5.22-9.95
	c1.71-3.03,3.84-5.84,5.17-9.05c0.42-4.44,0.05-8.9,0.17-13.34c1.43-0.02,2.87-0.02,4.32,0
	C339.68,923.97,339.65,956.28,339.67,988.58z M335.03,847.93c0.4-4.6-3.39-7.92-5.19-11.81c1.68-3.03,3.63-5.92,4.98-9.11
	c0.47-5.98,0.02-12,0.21-17.99c0.58-3.92-2.42-6.83-4.21-9.95c2.87-0.02,5.74-0.21,8.58-0.69c-0.16,26.22-0.02,52.44-0.07,78.66
	c-3.21-0.4-6.76,0.28-9.67-1.43c1.68-3.16,3.86-6.07,5.19-9.4C335.24,860.12,334.87,854.01,335.03,847.93z M359.86,480.08
	c-2.3,7.2-3.83,14.69-7.15,21.52c-2.37,5.01-4.13,10.34-7.21,14.99c-3.55,5.4-6.53,11.24-11.01,15.98
	c-4.74,5.94-10.95,10.43-16.93,15.02c-5.79,3.08-11.44,6.67-17.87,8.28c-2.06-2.4-3.64-5.56-6.73-6.76
	c-3.25-1.31-6.46-2.78-9.86-3.64c-4.04,0.62-8.11,1.34-11.99,2.61c-2.59,1.65-4.7,3.93-7.01,5.93c-7.06-2.36-12.97-7.02-19.13-11.03
	c-5.76-5.2-11.96-10.07-16.53-16.42c-9.46-11.27-16.86-24.07-24.07-36.85c-3.15-5.18-4.48-11.16-6.58-16.78
	c-4.42-10.86-4.84-22.74-7.1-34.12c-2.42-11.48-2.28-23.26-3.16-34.91c-0.32-7.95-1.37-15.9-0.77-23.86
	c0.85-12.41,1.09-24.86,2.18-37.24c2.24-13.1,4.26-26.24,6.8-39.27c3.61-11.99,7.04-24.04,10.87-35.96
	c5.01-11.26,9.92-22.59,15.19-33.73c6.12-9.83,12.3-19.64,18.64-29.32c6.82-8.15,14.07-15.93,21.05-23.94
	c4.76-4.66,10.39-8.33,15.52-12.58c3.77-2.84,7.24-6.15,11.48-8.31c-0.57,2.9-3.2,4.64-4.93,6.85
	c-13.85,14.29-22.2,33.19-26.04,52.54c-4.24,21.01-3.42,42.94,1.78,63.7c5.63,21.92,16.42,43.16,33.75,58.11
	c4.31,4.46,9.81,7.41,14.83,10.95c-5.71,3.95-11.93,7.23-17.23,11.72c-5.36,6.36-10.24,13.15-15.09,19.9
	c-3.12,7.36-5.66,15-8.34,22.54c-1.43,8.59-2.19,17.32-3.08,25.99c0.5,8.13,1.93,16.19,2.62,24.32c1.41,1.32,2.84,2.63,4.29,3.93
	c-2.03,0.87-4.05,1.73-6.08,2.58c0.03,1.51,0.06,3.04,0.1,4.56c3.47,1.14,5.91,3.93,8.54,6.3c-1.67,2.94-3.61,5.72-5.12,8.75
	c-1.47,3.37-2.37,6.96-3.62,10.42c3.33,4.48,6.59,9.01,9.93,13.48c1.92,2.71,5.08,4.11,7.29,6.52c1.69,2.57,2.83,5.45,4.22,8.19
	c3.84-0.35,7.67-0.78,11.48-1.43c1.03-3.74,1.07-8.06,3.82-11.07c5.39-5.87,7-13.97,10.61-20.88c-3.25-6.42-7.5-12.21-12.98-16.9
	c2-3.11,4.21-6.09,7.05-8.47c-0.38-1.51-0.88-2.97-1.36-4.43c-2.05-0.3-4.09-0.62-6.13-0.94c1.01-1.49,2.03-2.97,3.07-4.45
	c-0.61-6.54-1.63-13.05-2.16-19.6c-0.04-5.03,0.98-9.99,1.4-14.99c0.29-4.29,2.35-8.14,3.64-12.17c1.81-6.58,6.93-11.37,10.67-16.85
	c3.27,2.26,6.25,5.43,10.38,6.02c3.67,0.33,7.5,1.01,11.11-0.11c2.91-1.1,5.54-2.8,8.27-4.28c1.64,1.51,3.14,3.18,4.34,5.07
	c2.62,4.08,5.81,7.84,7.61,12.4c-4.71,3.29-8.67,8.94-7.73,14.93c0.58,3.57,2.66,7.01,5.89,8.76c2.67,1.25,5.54,2.03,8.33,2.98
	C364.97,449.88,363.4,465.24,359.86,480.08z M377.7,374.33c-1.95-2.63-3.51-5.64-6.15-7.67c-4.24-3.32-8.43-6.71-12.66-10.05
	c6.87-3.7,14.35-6.61,20.13-12.01C377.46,354.39,377.06,364.43,377.7,374.33z M381.76,289.54c-3.16,0.63-6.41,0.93-9.46,1.95
	c-3.85,2.51-7.33,6.09-8.72,10.56c-0.21,5.25-0.11,11,3.71,15.07c-4.93,5.17-10.83,9.31-17.38,12.15c-2.68-3-4.5-7.16-8.53-8.6
	c-2.69-1.15-5.39-2.42-8.28-2.97c-3.61,0.32-7.2,1.05-10.65,2.13c-1.96,1.13-3.58,2.72-5.36,4.1
	c-13.73-10.29-23.38-25.38-28.32-41.7c-6.25-20.02-7.19-41.74-2.34-62.17c3.19-12.2,8.59-24.17,17.34-33.39
	c4.43,3.11,10.09,2.56,15.21,2.53c3.41-1.51,6.6-3.5,9.66-5.62c2.47-2.95,3.41-6.87,5.51-10.07c8.08,0.52,15.62,4.51,21.98,9.36
	c11.16,9.16,18.52,22.1,23.57,35.45C387.79,241.04,388.88,266.42,381.76,289.54z M364.78,154.29c-11.05-6.15-23.49-10.26-36.27-9.78
	c8.9-4.18,18.91-2.68,28.4-3.39c7.13-0.78,14.05,1.47,21,2.7c5.17,1.2,10.61,1.48,15.48,3.77c8.13,3.63,16.48,6.75,24.52,10.59
	c8.16,5.07,15.93,10.75,23.99,15.99c5.6,4.68,10.59,10.06,15.99,14.97c3.12,3.2,6.74,5.94,9.4,9.56
	c6.43,8.55,13.14,16.9,19.54,25.47c5.1,8.28,9.77,16.82,14.64,25.23c6.85,11,10.64,23.5,15.96,35.24
	c-5.89-5.84-11.57-12.09-18.78-16.34c-5.39-4.13-11.93-6.12-18.07-8.81c-10.13-3.67-21.24-4.62-31.83-2.6
	c-6.84,1.81-13.95,3.07-20.09,6.78c-5.48,2.46-10,6.44-14.62,10.18c2.37-24.68-0.69-50.15-10.93-72.87
	C395.17,182.25,382.48,164.84,364.78,154.29z M500.67,438.51c-6.35,8.42-15.36,15.08-25.54,18c-8.68,1.67-18.2,0.68-25.95-3.76
	c-14.37-8.12-24.72-21.94-31.35-36.82c4.07-3.15,8.42-7.39,7.9-13.03c-0.53-4.6-2.74-9.44-6.83-11.93
	c-2.77-1.42-5.95-1.64-8.97-2.14c-2.88-15.6-2.67-31.75,0.45-47.29c5.29-0.87,11.49-2.74,14.28-7.73c1.31-3.85,3.15-8.08,1.82-12.17
	c-0.98-3.29-3.14-6.03-5.19-8.7c7-11.94,17.64-23.41,31.9-25.8c9.38-2.35,19.04,0.92,27.17,5.54c13.64,8.34,22.73,22.44,28.86,36.87
	c-6.5,3.4-9.94,12.3-6.48,18.97c2.86,4.87,8.73,6.94,14.1,7.38C521.55,384.06,517.34,414.8,500.67,438.51z M568.29,336.81
	c2.41-0.34,4.71,0.68,6.59,2.11c-0.53,14.16,0.02,28.34-0.26,42.5C573.8,366.38,570.36,351.69,568.29,336.81z M578.27,1087.31
	c-2.11-2.63-4.19-5.28-6.17-8c2.01-2.38,4.08-4.74,6.5-6.73C578.86,1077.49,578.4,1082.39,578.27,1087.31z M578.67,997.01
	c-0.05,23.5,0.08,47-0.07,70.5c-1.76-0.53-3.5-1.03-5.24-1.54c1.2-1.91,3.5-3.45,3.62-5.85c0.07-28.35,0.74-56.7,0.71-85.05
	c0.98-12.33,0.12-24.7,0.62-37.04c0.26-10.57-0.35-21.15,0.23-31.7C578.92,936.55,578.76,966.78,578.67,997.01z"/>
</svg>
